User Type,Username,Date,Text
[T],insinuendo,2011-06-24T16:47Z,http://subscene.com/english/Arrietty-Kari-gurashi-no-Arietti/subtitle-450002.aspx
,5tarvin,2011-06-24T19:16Z,another perfect ghibli movie 
,shirotsu2,2011-07-05T00:54Z,Japanese 2.0??? Give me a fucking break. Why would you even bother.
,blammer,2011-08-07T03:25Z,@shirotsu2 Good point. The most important language is in crappy stereo. I prefer sound before video so i go for the 720P.
,dexter1234567,2011-10-20T02:50Z,"Stereo sound is not crappy! You guys suck, look at the bitrate for the stereo sound, it's awesome. Well sure, is you wanna have 5.1 sound that fine. But if you gonna watch it on your computer with stereo speakers you are better of with stereo anyway. Get your facts straight!"
,interstellar303,2011-11-25T21:01Z,"hey guys... the japanese audio is actually 5.1...

not sure, but at least vlc shows that, and from what my ears tell me, it really is 5.1

not sure why uploader wrote 2.0 in the description tho...

can someone else confirm?"
,UltraMagnus0001,2012-05-25T22:37Z,"General
Unique ID                                : 209653608149092248220462679198849155920 (0x9DB9D0F1B7AE8F818D3C881E154DC350)
Complete name                            : D:Kids MoviesThe.Borrower.Arrietty.2010.BluRay.1080p.DTS.3Audio.x264-CHDThe.Borrower.Arrietty.2010.BluRay.1080p.DTS.3Audio.x264-CHD.mkv
Format                                   : Matroska
Format version                           : Version 2
File size                                : 7.92 GiB
Duration                                 : 1h 34mn
Overall bit rate                         : 12.0 Mbps
Encoded date                             : UTC 2011-06-21 01:49:26
Writing application                      : mkvmerge v3.2.0 ('Beginnings') 编译于 Feb 12 2010 16:46:17
Writing library                          : libebml v0.7.9 + libmatroska v0.8.1

Video
ID                                       : 1
Format                                   : AVC
Format/Info                              : Advanced Video Codec
Format profile                           : High@L4.1
Format settings, CABAC                   : Yes
Format settings, ReFrames                : 4 frames
Codec ID                                 : V_MPEG4/ISO/AVC
Duration                                 : 1h 34mn
Bit rate                                 : 9 000 Kbps
Width                                    : 1 920 pixels
Height                                   : 1 036 pixels
Display aspect ratio                     : 1.85:1
Frame rate                               : 23.976 fps
Color space                              : YUV
Chroma subsampling                       : 4:2:0
Bit depth                                : 8 bits
Scan type                                : Progressive
Bits/(Pixel*Frame)                       : 0.189
Stream size                              : 5.78 GiB (73%)
Title                                    : The.Borrower.Arrietty.2010
Writing library                          : x264 core 114 r1924 08d04a4
Encoding settings                        : cabac=1 / ref=4 / deblock=1:-2:-2 / analyse=0x3:0x113 / me=umh / subme=9 / psy=1 / psy_rd=1.00:0.05 / mixed_ref=1 / me_range=48 / chroma_me=1 / trellis=2 / 8x8dct=1 / cqm=2 / deadzone=21,11 / fast_pskip=0 / chroma_qp_offset=-2 / threads=12 / sliced_threads=0 / nr=0 / decimate=1 / interlaced=0 / constrained_intra=0 / bframes=6 / b_pyramid=2 / b_adapt=2 / b_bias=0 / direct=3 / weightb=1 / open_gop=0 / weightp=2 / keyint=250 / keyint_min=23 / scenecut=40 / intra_refresh=0 / rc_lookahead=50 / rc=2pass / mbtree=1 / bitrate=9000 / ratetol=1.0 / qcomp=0.60 / qpmin=1 / qpmax=63 / qpstep=4 / cplxblur=20.0 / qblur=0.5 / vbv_maxrate=40000 / vbv_bufsize=40000 / nal_hrd=none / ip_ratio=1.40 / aq=2:0.90
Language                                 : Japanese
Default                                  : No
Forced                                   : No

Audio #1
ID                                       : 2
Format                                   : DTS
Format/Info                              : Digital Theater Systems
Codec ID                                 : A_DTS
Duration                                 : 1h 34mn
Bit rate mode                            : Constant
Bit rate                                 : 1 510 Kbps
Channel(s)                               : 6 channels
Channel positions                        : Front: L C R, Side: L R, LFE
Sampling rate                            : 48.0 KHz
Bit depth                                : 24 bits
Compression mode                         : Lossy
Stream size                              : 1 016 MiB (13%)
Title                                    : DTS-CORE 1536K JPN
Language                                 : Japanese
Default                                  : Yes
Forced                                   : No

Audio #2
ID                                       : 3
Format                                   : DTS
Format/Info                              : Digital Theater Systems
Codec ID                                 : A_DTS
Duration                                 : 1h 34mn
Bit rate mode                            : Constant
Bit"
,UltraMagnus0001,2012-05-25T22:38Z,"Audio #1
ID                                       : 2
Format                                   : DTS
Format/Info                              : Digital Theater Systems
Codec ID                                 : A_DTS
Duration                                 : 1h 34mn
Bit rate mode                            : Constant
Bit rate                                 : 1 510 Kbps
Channel(s)                               : 6 channels
Channel positions                        : Front: L C R, Side: L R, LFE
Sampling rate                            : 48.0 KHz
Bit depth                                : 24 bits
Compression mode                         : Lossy
Stream size                              : 1 016 MiB (13%)
Title                                    : DTS-CORE 1536K JPN
Language                                 : Japanese
Default                                  : Yes
Forced                                   : No"
,UltraMagnus0001,2012-05-25T22:39Z,"Audio #2
ID                                       : 3
Format                                   : DTS
Format/Info                              : Digital Theater Systems
Codec ID                                 : A_DTS
Duration                                 : 1h 34mn
Bit rate mode                            : Constant
Bit rate                                 : 755 Kbps
Channel(s)                               : 6 channels
Channel positions                        : Front: L C R, Side: L R, LFE
Sampling rate                            : 48.0 KHz
Bit depth                                : 24 bits
Compression mode                         : Lossy
Stream size                              : 508 MiB (6%)
Title                                    : DTS 5.1 768K MANDARIN
Language                                 : Chinese
Default                                  : No
Forced                                   : No"
,UltraMagnus0001,2012-05-25T22:40Z,"Audio #3
ID                                       : 4
Format                                   : DTS
Format/Info                              : Digital Theater Systems
Codec ID                                 : A_DTS
Duration                                 : 1h 34mn
Bit rate mode                            : Constant
Bit rate                                 : 755 Kbps
Channel(s)                               : 6 channels
Channel positions                        : Front: L C R, Side: L R, LFE
Sampling rate                            : 48.0 KHz
Bit depth                                : 24 bits
Compression mode                         : Lossy
Stream size                              : 508 MiB (6%)
Title                                    : DTS 5.1 768K CANTONESE
Language                                 : Chinese
Default                                  : No
Forced                                   : No
"
